<svg width="528" height="528" viewBox="0 0 528 528" fill="none" xmlns="http://www.w3.org/2000/svg">
<g clip-path="url(#clip0_40000401_705)">
<path d="M264.171 528.342C409.993 528.342 528.342 409.993 528.342 264.171C528.342 118.349 409.993 0 264.171 0C118.349 0 0 118.349 0 264.171C0 409.993 118.349 528.342 264.171 528.342Z" fill="#FF0033"/>
<path d="M416.577 264.171C416.577 348.378 348.378 416.577 264.171 416.577C179.964 416.577 111.765 348.378 111.765 264.171C111.765 179.964 179.964 111.765 264.171 111.765C348.378 111.765 416.577 179.964 416.577 264.171Z" stroke="white" stroke-width="20.3208"/>
<path d="M360.695 264.171L208.289 177.807V350.534L360.695 264.171Z" fill="white"/>
</g>
<defs>
<clipPath id="clip0_40000401_705">
<rect width="528" height="528" fill="white"/>
</clipPath>
</defs>
</svg>
